<svg width="32" height="32" viewBox="0 0 32 32" fill="none" xmlns="http://www.w3.org/2000/svg">
<path d="M0 16C0 7.16344 7.16344 0 16 0V0C24.8366 0 32 7.16344 32 16V16C32 24.8366 24.8366 32 16 32V32C7.16344 32 0 24.8366 0 16V16Z" fill="#0991DD"/>
<path d="M12.4913 23H9.0029C8.68507 23 8.42151 22.7356 8.42151 22.4167V14.6389C8.42151 14.32 8.68507 14.0556 9.0029 14.0556H12.4913C12.8091 14.0556 13.0727 14.32 13.0727 14.6389V22.4167C13.0727 22.7356 12.8091 23 12.4913 23ZM9.5843 21.8333H11.9099V15.2222H9.5843V21.8333Z" fill="white"/>
<path d="M20.5223 23H13.6541C13.3362 23 13.0727 22.7356 13.0727 22.4167C13.0727 22.0978 13.3362 21.8333 13.6541 21.8333H20.5223C20.9796 21.8333 21.3827 21.5067 21.4758 21.0556L22.406 16.3889C22.4603 16.1011 22.3905 15.8056 22.2045 15.58C22.0184 15.3544 21.7471 15.2222 21.4525 15.2222H17.9176C17.7393 15.2222 17.5688 15.1367 17.4525 14.9967C17.344 14.8489 17.3052 14.6622 17.3517 14.4911L18.1812 11.3956C18.2587 11.1 18.1967 10.7967 18.0184 10.5478C17.8711 10.3533 17.6618 10.2289 17.437 10.1822L14.1347 14.9656C13.9486 15.23 13.5921 15.3 13.3285 15.1133C13.0649 14.9267 12.9952 14.5689 13.1812 14.3044L16.6618 9.24889C16.7703 9.09333 16.9486 9 17.1424 9H17.251C17.9176 9 18.5378 9.30333 18.9409 9.84C19.344 10.3767 19.4835 11.0533 19.3052 11.6989L18.6696 14.0556H21.4448C22.0882 14.0556 22.6851 14.3433 23.0959 14.8411C23.499 15.3389 23.6618 15.9844 23.5378 16.6144L22.6076 21.2811C22.406 22.2767 21.53 23 20.5145 23H20.5223Z" fill="white"/>
</svg>
