<svg width="12" height="12" viewBox="0 0 12 12" fill="none" xmlns="http://www.w3.org/2000/svg">
<g id="Icon" clip-path="url(#clip0_170_2203)">
<path id="Vector" d="M6 12C2.694 12 0 9.306 0 6C0 2.694 2.694 0 6 0C9.306 0 12 2.694 12 6C12 9.306 9.306 12 6 12ZM6 0.9C3.186 0.9 0.9 3.186 0.9 6C0.9 8.814 3.186 11.1 6 11.1C8.814 11.1 11.1 8.814 11.1 6C11.1 3.186 8.814 0.9 6 0.9Z" fill="#3E6BF6"/>
<path id="Vector_2" d="M8.54999 9C8.43599 9 8.32199 8.958 8.23199 8.868L5.68199 6.318C5.59799 6.234 5.54999 6.12 5.54999 6V3.45C5.54999 3.204 5.75399 3 5.99999 3C6.24599 3 6.44999 3.204 6.44999 3.45V5.814L8.86799 8.232C9.04199 8.406 9.04199 8.694 8.86799 8.868C8.77799 8.958 8.66399 9 8.54999 9Z" fill="#3E6BF6"/>
</g>
<defs>
<clipPath id="clip0_170_2203">
<rect width="12" height="12" fill="white"/>
</clipPath>
</defs>
</svg>
