<svg width="32" height="32" viewBox="0 0 32 32" fill="none" xmlns="http://www.w3.org/2000/svg">
<rect width="32" height="32" rx="16" fill="#F7934B"/>
<g clip-path="url(#clip0_303_428)">
<path d="M12.4913 9H9.0029C8.68507 9 8.42151 9.26444 8.42151 9.58333V17.3611C8.42151 17.68 8.68507 17.9444 9.0029 17.9444H12.4913C12.8091 17.9444 13.0727 17.68 13.0727 17.3611V9.58333C13.0727 9.26444 12.8091 9 12.4913 9ZM9.5843 10.1667H11.9099V16.7778H9.5843V10.1667Z" fill="white"/>
<path d="M20.5223 9H13.6541C13.3362 9 13.0727 9.26444 13.0727 9.58333C13.0727 9.90222 13.3362 10.1667 13.6541 10.1667H20.5223C20.9796 10.1667 21.3827 10.4933 21.4758 10.9444L22.406 15.6111C22.4603 15.8989 22.3905 16.1944 22.2045 16.42C22.0184 16.6456 21.7471 16.7778 21.4525 16.7778H17.9176C17.7393 16.7778 17.5688 16.8633 17.4525 17.0033C17.344 17.1511 17.3052 17.3378 17.3517 17.5089L18.1812 20.6044C18.2587 20.9 18.1967 21.2033 18.0184 21.4522C17.8711 21.6467 17.6618 21.7711 17.437 21.8178L14.1347 17.0344C13.9486 16.77 13.5921 16.7 13.3285 16.8867C13.0649 17.0733 12.9952 17.4311 13.1812 17.6956L16.6618 22.7511C16.7703 22.9067 16.9486 23 17.1424 23H17.251C17.9176 23 18.5378 22.6967 18.9409 22.16C19.344 21.6233 19.4835 20.9467 19.3052 20.3011L18.6696 17.9444H21.4448C22.0882 17.9444 22.6851 17.6567 23.0959 17.1589C23.499 16.6611 23.6618 16.0156 23.5378 15.3856L22.6076 10.7189C22.406 9.72333 21.53 9 20.5145 9H20.5223Z" fill="white"/>
</g>
<defs>
<clipPath id="clip0_303_428">
<rect width="15.157" height="14" fill="white" transform="matrix(1 0 0 -1 8.42151 23)"/>
</clipPath>
</defs>
</svg>
